<svg id="visual" viewBox="0 0 960 540" width="960" height="540" xmlns="http://www.w3.org/2000/svg" xmlns:xlink="http://www.w3.org/1999/xlink" version="1.1"><g stroke-width="2" stroke-linejoin="bevel"><path d="M370 253L623 225L397 0Z" fill="#1b6eaa" stroke="#11b9ff"></path><path d="M623 225L595 0L397 0Z" fill="#000f33" stroke="#11b9ff"></path><path d="M370 253L633 540L623 225Z" fill="#1b6eaa" stroke="#11b9ff"></path><path d="M351 540L633 540L370 253Z" fill="#092d58" stroke="#11b9ff"></path><path d="M370 253L0 540L351 540Z" fill="#1b6eaa" stroke="#11b9ff"></path><path d="M397 0L0 205L370 253Z" fill="#031e45" stroke="#11b9ff"></path><path d="M623 225L960 0L595 0Z" fill="#11b9ff" stroke="#11b9ff"></path><path d="M960 322L960 0L623 225Z" fill="#18a6ea" stroke="#11b9ff"></path><path d="M397 0L0 0L0 205Z" fill="#1b6eaa" stroke="#11b9ff"></path><path d="M633 540L960 322L623 225Z" fill="#18a6ea" stroke="#11b9ff"></path><path d="M633 540L960 540L960 322Z" fill="#031e45" stroke="#11b9ff"></path><path d="M0 205L0 540L370 253Z" fill="#18a6ea" stroke="#11b9ff"></path></g></svg>