<svg id="visual" viewBox="0 0 960 540" width="960" height="540" xmlns="http://www.w3.org/2000/svg" xmlns:xlink="http://www.w3.org/1999/xlink" version="1.1"><g stroke-width="2" stroke-linejoin="bevel"><path d="M627 265L631 0L327 245Z" fill="#000f33" stroke="#ed78ab"></path><path d="M631 0L317 0L327 245Z" fill="#d16ba3" stroke="#ed78ab"></path><path d="M327 245L348 540L627 265Z" fill="#000f33" stroke="#ed78ab"></path><path d="M348 540L626 540L627 265Z" fill="#181b44" stroke="#ed78ab"></path><path d="M627 265L960 254L631 0Z" fill="#ed78ab" stroke="#ed78ab"></path><path d="M960 540L960 254L627 265Z" fill="#181b44" stroke="#ed78ab"></path><path d="M960 254L960 0L631 0Z" fill="#7d4781" stroke="#ed78ab"></path><path d="M317 0L0 0L327 245Z" fill="#d16ba3" stroke="#ed78ab"></path><path d="M327 245L0 279L348 540Z" fill="#d16ba3" stroke="#ed78ab"></path><path d="M0 0L0 279L327 245Z" fill="#99528d" stroke="#ed78ab"></path><path d="M626 540L960 540L627 265Z" fill="#7d4781" stroke="#ed78ab"></path><path d="M0 279L0 540L348 540Z" fill="#7d4781" stroke="#ed78ab"></path></g></svg>