<svg id="visual" viewBox="0 0 960 540" width="960" height="540" xmlns="http://www.w3.org/2000/svg" xmlns:xlink="http://www.w3.org/1999/xlink" version="1.1"><g stroke-width="2" stroke-linejoin="bevel"><path d="M327 200L589 0L319 0Z" fill="#dd83cb" stroke="#000f33"></path><path d="M327 200L694 344L589 0Z" fill="#68aeff" stroke="#000f33"></path><path d="M319 0L0 0L327 200Z" fill="#e67dbc" stroke="#000f33"></path><path d="M0 0L0 236L327 200Z" fill="#83a7ff" stroke="#000f33"></path><path d="M327 200L286 540L694 344Z" fill="#11b9ff" stroke="#000f33"></path><path d="M0 236L286 540L327 200Z" fill="#e67dbc" stroke="#000f33"></path><path d="M286 540L705 540L694 344Z" fill="#dd83cb" stroke="#000f33"></path><path d="M960 197L960 0L589 0Z" fill="#11b9ff" stroke="#000f33"></path><path d="M960 197L589 0L694 344Z" fill="#ed78ab" stroke="#000f33"></path><path d="M960 540L960 197L694 344Z" fill="#83a7ff" stroke="#000f33"></path><path d="M0 236L0 540L286 540Z" fill="#dd83cb" stroke="#000f33"></path><path d="M705 540L960 540L694 344Z" fill="#83a7ff" stroke="#000f33"></path></g></svg>